# xmcd
#
# Track frame offsets:
#	150
#	22742
#	39588
#	51315
#	70494
#	97598
#	122246
#	146573
#	164936
#	184228
#	210422
#
# Disc length: 2861 seconds
# Revision: 3
# Processed by: cddbd v1.5.2PL0 Copyright (c) Steve Scherf et al.
# Submitted via: dBpowerAMP V12.0
#
DISCID=9c0b2b0b
DTITLE=Fred Eaglesmith - Milly's Cafe
DYEAR=2006
DGENRE=Folk
TTITLE0=18 Wheels
TTITLE1=Kansas
TTITLE2=Summer Is Over
TTITLE3=Thinkin Bout Her
TTITLE4=Rocky
TTITLE5=Milly's Cafe
TTITLE6=Tired
TTITLE7=Mrs Hank Williams
TTITLE8=Sign on the Wall
TTITLE9=The Rains
TTITLE10=Hidden Track
EXTD=
EXTT0=
EXTT1=
EXTT2=
EXTT3=
EXTT4=
EXTT5=
EXTT6=
EXTT7=
EXTT8=
EXTT9=
EXTT10=
PLAYORDER=
